<?xml version="1.0" encoding="UTF-8"?>
<svg xmlns="http://www.w3.org/2000/svg" xmlns:xlink="http://www.w3.org/1999/xlink" width="337.41pt" height="383.33pt" viewBox="0 0 337.41 383.33" version="1.1">
<defs>
<clipPath id="clip1">
  <path d="M 0 0 L 337.410156 0 L 337.410156 383.328125 L 0 383.328125 Z M 0 0 "/>
</clipPath>
</defs>
<g id="surface1">
<g clip-path="url(#clip1)" clip-rule="nonzero">
<path style=" stroke:none;fill-rule:nonzero;fill:rgb(87.5%,11.799622%,14.498901%);fill-opacity:1;" d="M 16.691406 382.867188 C 13.003906 381.414063 9.285156 379.195313 6.433594 376.421875 C 2.691406 372.777344 0.566406 367.839844 0.191406 362.660156 C 0.144531 361.996094 0.121094 361.332031 0.121094 360.667969 C 0.117188 247.910156 0.230469 135.152344 0 22.394531 C -0.0351563 5.328125 17.507813 -5.914063 33.238281 3.300781 C 71.230469 25.558594 109.460938 47.410156 147.597656 69.417969 C 201.828125 100.714844 256.066406 132.003906 310.304688 163.300781 C 315.378906 166.230469 320.410156 169.242188 325.523438 172.109375 C 332.949219 176.277344 337.289063 182.332031 337.40625 191.046875 C 337.527344 199.964844 333.085938 206.097656 325.601563 210.410156 C 283.242188 234.839844 240.894531 259.28125 198.546875 283.726563 C 143.992188 315.21875 89.4375 346.707031 34.914063 378.253906 C 32.574219 379.605469 30.078125 380.648438 27.570313 381.636719 C 26.15625 382.191406 24.867188 382.910156 23.328125 383.039063 C 21.191406 383.21875 18.738281 383.675781 16.691406 382.867188 "/>
</g>
<path style=" stroke:none;fill-rule:nonzero;fill:rgb(100%,100%,100%);fill-opacity:1;" d="M 36.304688 193.894531 L 36.304688 203.234375 C 36.304688 212.464844 36.304688 212.464844 45.386719 212.328125 C 53.808594 212.199219 58.273438 208.117188 59.117188 199.734375 C 59.265625 198.246094 59.328125 196.753906 59.363281 195.261719 C 59.777344 179.421875 55.601563 175.195313 39.789063 175.414063 C 39.542969 175.417969 39.289063 175.441406 39.042969 175.414063 C 36.921875 175.160156 36.21875 176.101563 36.265625 178.203125 C 36.378906 183.429688 36.300781 188.660156 36.304688 193.894531 M 27.164063 193.746094 C 27.164063 186.128906 27.253906 178.507813 27.113281 170.894531 C 27.070313 168.449219 27.78125 167.59375 30.277344 167.707031 C 37.984375 168.058594 45.765625 167.03125 53.402344 168.871094 C 62.328125 171.03125 67.671875 176.992188 68.40625 186.175781 C 68.792969 191.015625 68.882813 195.929688 68.5 200.765625 C 67.585938 212.339844 60.140625 219.441406 48.488281 220 C 42.382813 220.289063 36.25 220.035156 30.140625 220.273438 C 27.476563 220.378906 27.089844 219.246094 27.125 216.976563 C 27.234375 209.234375 27.164063 201.492188 27.164063 193.746094 "/>
<path style=" stroke:none;fill-rule:nonzero;fill:rgb(100%,100%,100%);fill-opacity:1;" d="M 121.039063 280.78125 L 127.773438 280.78125 L 127.773438 274.152344 L 121.039063 274.152344 Z M 121.039063 280.78125 "/>
<path style=" stroke:none;fill-rule:nonzero;fill:rgb(100%,100%,100%);fill-opacity:1;" d="M 77.589844 248.484375 L 84.324219 248.484375 L 84.324219 241.855469 L 77.589844 241.855469 Z M 77.589844 248.484375 "/>
<path style=" stroke:none;fill-rule:nonzero;fill:rgb(100%,100%,100%);fill-opacity:1;" d="M 37.929688 290.144531 L 44.660156 290.144531 L 44.660156 283.515625 L 37.929688 283.515625 Z M 37.929688 290.144531 "/>
<path style=" stroke:none;fill-rule:nonzero;fill:rgb(100%,100%,100%);fill-opacity:1;" d="M 48.449219 290.355469 L 55.179688 290.355469 L 55.179688 283.726563 L 48.449219 283.726563 Z M 48.449219 290.355469 "/>
<path style=" stroke:none;fill-rule:nonzero;fill:rgb(100%,100%,100%);fill-opacity:1;" d="M 126.484375 167.746094 C 130.847656 167.734375 135.214844 167.722656 139.578125 167.707031 L 141.921875 167.738281 C 141.914063 169.011719 141.914063 170.296875 141.921875 171.597656 C 141.933594 172.914063 141.949219 174.210938 141.976563 175.496094 C 141.136719 175.503906 140.296875 175.507813 139.457031 175.511719 C 133.796875 175.539063 128.183594 175.503906 122.621094 175.414063 C 122.164063 175.359375 121.144531 175.3125 120.449219 175.957031 C 119.800781 176.558594 119.773438 177.453125 119.746094 178.152344 C 119.519531 183.679688 119.390625 186.425781 120.699219 187.789063 C 121.175781 188.285156 122.128906 188.996094 130.066406 189.132813 C 132.902344 189.183594 135.234375 189.132813 136.796875 189.082031 C 137.644531 189.085938 138.496094 189.089844 139.347656 189.097656 L 139.347656 192.960938 C 139.363281 194.320313 139.382813 195.679688 139.398438 197.039063 C 138.519531 197.054688 137.644531 197.074219 136.765625 197.089844 C 129.746094 197.121094 124.636719 197.121094 122.550781 196.976563 C 122.175781 196.953125 121.136719 196.867188 120.441406 197.515625 C 119.972656 197.953125 119.78125 198.683594 119.746094 199.785156 C 119.546875 205.585938 119.652344 208.710938 121.265625 210.382813 C 122.128906 211.28125 123.414063 212.039063 131.8125 212.277344 C 136.230469 212.402344 139.929688 212.308594 142.609375 212.1875 C 142.582031 214.871094 142.554688 217.554688 142.527344 220.238281 C 138.433594 220.335938 134.167969 220.347656 129.746094 220.238281 C 126.832031 220.164063 123.988281 220.039063 121.222656 219.878906 C 116.941406 219.171875 114.734375 217.382813 113.753906 216.414063 C 113.597656 216.253906 113.347656 216.007813 113.054688 215.648438 C 112.226563 214.628906 111.003906 212.5625 110.890625 208.601563 C 110.515625 195.769531 110.679688 182.917969 110.566406 170.074219 C 110.558594 169.199219 110.722656 168.609375 111.09375 168.242188 C 111.703125 167.636719 112.675781 167.699219 113.011719 167.722656 C 114.863281 167.828125 119.765625 167.804688 126.484375 167.746094 "/>
<path style=" stroke:none;fill-rule:nonzero;fill:rgb(100%,100%,100%);fill-opacity:1;" d="M 162.816406 212.277344 C 169.78125 212.25 176.746094 212.21875 183.710938 212.1875 C 184.738281 212.222656 185.765625 212.257813 186.792969 212.292969 C 186.8125 213.609375 186.828125 214.921875 186.847656 216.238281 C 186.792969 217.550781 186.742188 218.867188 186.6875 220.183594 C 185.703125 220.222656 184.722656 220.261719 183.738281 220.300781 C 173.886719 220.371094 166.25 220.355469 162.148438 220.316406 C 157.636719 220.273438 153.804688 220.175781 153.804688 220.175781 C 152.269531 220.117188 151.035156 220.089844 150.328125 220.070313 C 150.175781 219.910156 149.96875 219.652344 149.792969 219.300781 C 149.417969 218.550781 149.464844 217.847656 149.464844 217.519531 C 149.460938 216.351563 149.867188 215.164063 150.726563 214.042969 C 156.644531 206.320313 162.140625 198.300781 167.1875 189.980469 C 169.511719 186.148438 171.664063 182.210938 173.855469 178.296875 C 174.402344 177.3125 174.578125 176.578125 174.296875 176.09375 C 173.867188 175.371094 172.574219 175.40625 172.070313 175.414063 C 169.519531 175.472656 162.847656 175.480469 153.738281 175.515625 C 152.972656 175.523438 152.210938 175.53125 151.445313 175.535156 C 151.40625 174.273438 151.367188 173.011719 151.328125 171.75 L 151.40625 167.726563 C 152.179688 167.710938 152.949219 167.699219 153.722656 167.6875 C 170.230469 167.765625 182.179688 167.8125 184.40625 167.707031 C 184.761719 167.691406 185.898438 167.621094 186.578125 168.339844 C 187.027344 168.816406 187.152344 169.566406 187.097656 170.613281 C 187.003906 172.304688 186.3125 173.730469 185.589844 175.179688 C 179.539063 187.246094 172.261719 198.558594 164.554688 209.605469 C 164.136719 210.203125 163.761719 210.824219 162.816406 212.277344 "/>
<path style=" stroke:none;fill-rule:nonzero;fill:rgb(100%,100%,100%);fill-opacity:1;" d="M 205.582031 212.121094 C 212.546875 212.089844 219.515625 212.058594 226.480469 212.03125 C 227.507813 212.066406 228.53125 212.101563 229.5625 212.136719 C 229.578125 213.449219 229.597656 214.765625 229.613281 216.078125 C 229.5625 217.394531 229.507813 218.710938 229.453125 220.023438 C 228.472656 220.0625 227.488281 220.105469 226.503906 220.144531 C 216.652344 220.214844 209.015625 220.199219 204.914063 220.160156 C 200.402344 220.117188 196.570313 220.015625 196.570313 220.015625 C 195.039063 219.960938 193.804688 219.929688 193.09375 219.914063 C 192.941406 219.75 192.734375 219.496094 192.558594 219.144531 C 192.183594 218.390625 192.230469 217.691406 192.230469 217.363281 C 192.226563 216.195313 192.632813 215.007813 193.492188 213.886719 C 199.410156 206.164063 204.90625 198.140625 209.953125 189.824219 C 212.277344 185.988281 214.433594 182.050781 216.621094 178.136719 C 217.171875 177.152344 217.34375 176.417969 217.0625 175.9375 C 216.636719 175.214844 215.34375 175.246094 214.835938 175.257813 C 212.285156 175.3125 205.613281 175.324219 196.503906 175.359375 C 195.738281 175.367188 194.976563 175.371094 194.210938 175.378906 C 194.171875 174.117188 194.132813 172.855469 194.09375 171.589844 L 194.171875 167.566406 C 194.945313 167.554688 195.71875 167.542969 196.488281 167.53125 C 212.992188 167.605469 224.945313 167.652344 227.175781 167.550781 C 227.527344 167.535156 228.664063 167.464844 229.34375 168.183594 C 229.792969 168.660156 229.917969 169.410156 229.859375 170.453125 C 229.769531 172.148438 229.078125 173.574219 228.355469 175.019531 C 222.308594 187.085938 215.027344 198.398438 207.316406 209.449219 C 206.902344 210.046875 206.527344 210.664063 205.582031 212.121094 "/>
<path style=" stroke:none;fill-rule:nonzero;fill:rgb(100%,100%,100%);fill-opacity:1;" d="M 255.910156 191.507813 C 260.066406 183.433594 264.222656 175.363281 268.382813 167.289063 L 278.007813 167.371094 C 277.269531 168.386719 276.535156 169.402344 275.796875 170.421875 C 270.9375 177.40625 266.191406 185.679688 262.296875 195.328125 C 261.558594 197.148438 260.882813 198.945313 260.261719 200.71875 C 260.210938 201.132813 260.15625 201.550781 260.105469 201.964844 C 260.09375 202.574219 260.082031 203.183594 260.070313 203.796875 C 260.101563 208.289063 260.132813 212.785156 260.164063 217.277344 C 260.257813 218.492188 260.347656 219.707031 260.4375 220.921875 C 258.898438 220.90625 257.320313 220.875 255.703125 220.816406 C 254.269531 220.761719 252.867188 220.691406 251.496094 220.605469 C 251.421875 219.203125 251.367188 217.941406 251.328125 216.855469 C 251.292969 215.839844 251.269531 215.015625 251.257813 214.542969 C 251.253906 214.332031 251.25 214.179688 251.25 214.148438 C 251.230469 213.339844 251.121094 209.703125 250.863281 201.140625 C 249.90625 198.710938 248.824219 196.179688 247.601563 193.566406 C 246.628906 191.480469 245.636719 189.496094 244.644531 187.613281 C 241.546875 181.921875 238.445313 176.226563 235.347656 170.53125 L 234.058594 167.332031 C 235.753906 167.34375 237.449219 167.355469 239.148438 167.371094 L 244.234375 167.371094 C 244.921875 169.324219 245.683594 171.328125 246.523438 173.367188 C 249.375 180.269531 252.632813 186.304688 255.910156 191.507813 "/>
<path style=" stroke:none;fill-rule:nonzero;fill:rgb(100%,100%,100%);fill-opacity:1;" d="M 119.628906 270.164063 C 113.011719 270.164063 106.390625 270.214844 99.773438 270.148438 C 97.59375 270.125 94.71875 269.90625 92.546875 267.8125 C 90.378906 265.71875 90.03125 262.757813 89.972656 261.222656 C 89.867188 255.734375 89.757813 250.246094 89.652344 244.761719 C 89.664063 243.878906 89.675781 243 89.691406 242.117188 L 96.054688 242.117188 C 96.074219 242.695313 96.109375 243.761719 96.113281 245.09375 C 96.128906 249.105469 96.113281 253.402344 96.355469 258.558594 C 96.398438 259.421875 96.492188 260.980469 97.59375 262.09375 C 98.777344 263.289063 100.515625 263.351563 101.296875 263.367188 C 104.71875 263.441406 117.203125 263.550781 134.226563 263.5 C 134.878906 263.472656 135.535156 263.449219 136.191406 263.421875 C 136.230469 262.789063 136.234375 261.898438 136.066406 260.859375 C 135.976563 260.292969 135.113281 255.578125 130.976563 252.765625 C 124.867188 248.613281 117.308594 252.875 116.964844 253.074219 C 115.941406 253.660156 115.160156 254.289063 114.613281 254.785156 C 113.996094 254.085938 113.375 253.390625 112.753906 252.691406 L 111.046875 250.480469 C 111.671875 249.785156 112.597656 248.867188 113.851563 247.980469 C 118.214844 244.894531 125.242188 243.105469 131.871094 245.929688 C 141.121094 249.867188 142.757813 260.027344 143.046875 261.796875 C 143.59375 265.175781 143.222656 268.050781 142.816406 269.945313 C 141.164063 270.011719 138.714844 270.101563 135.738281 270.164063 C 126.785156 270.355469 125.789063 270.164063 119.628906 270.164063 "/>
<path style=" stroke:none;fill-rule:nonzero;fill:rgb(100%,100%,100%);fill-opacity:1;" d="M 98.546875 188.046875 C 98.957031 194.347656 98.902344 198.984375 98.476563 206.011719 C 97.957031 214.695313 92.699219 219.578125 84.019531 220.054688 C 83.015625 220.109375 81.042969 220.230469 79.164063 220.25 C 77.390625 220.269531 75.921875 220.226563 74.90625 220.183594 C 74.796875 218.957031 74.632813 213.535156 74.671875 212.265625 C 76.171875 212.316406 81.316406 212.304688 82.324219 212.265625 C 84.804688 212.175781 86.699219 211.539063 87.886719 210.199219 C 88.21875 209.824219 88.804688 209.035156 89.324219 206.066406 C 89.625 204.332031 89.902344 201.875 89.742188 198.851563 C 89.714844 191.648438 89.683594 184.445313 89.65625 177.238281 C 89.632813 176.644531 89.609375 176.050781 89.585938 175.457031 C 89.109375 175.449219 88.378906 175.441406 87.488281 175.4375 C 85.246094 175.425781 83.839844 175.445313 81.496094 175.457031 C 80.5 175.464844 79.046875 175.46875 77.273438 175.472656 C 77.214844 174.292969 77.175781 173.078125 77.15625 171.828125 C 77.132813 170.421875 77.140625 169.058594 77.167969 167.738281 C 77.171875 167.738281 79.402344 167.734375 79.410156 167.734375 C 79.667969 167.734375 96.003906 167.710938 96.265625 167.710938 C 96.984375 167.703125 97.703125 167.695313 98.421875 167.683594 L 98.421875 170.445313 C 98.0625 177.816406 98.273438 183.824219 98.546875 188.046875 "/>
<path style=" stroke:none;fill-rule:nonzero;fill:rgb(100%,100%,100%);fill-opacity:1;" d="M 51.316406 265.566406 C 43.792969 265.566406 43.09375 264.515625 45.855469 257.347656 C 47.925781 251.960938 54.144531 247.472656 60.753906 247.21875 C 61.792969 247.179688 62.648438 247.257813 63.175781 247.324219 C 63.234375 248.214844 63.269531 249.144531 63.28125 250.113281 C 63.296875 251.214844 63.277344 252.269531 63.230469 253.269531 C 62.585938 253.289063 61.941406 253.308594 61.300781 253.328125 C 60.636719 253.394531 57.261719 253.746094 55.054688 255.261719 C 54.855469 255.398438 54.121094 255.96875 53.398438 256.90625 C 52.78125 257.710938 52.464844 258.382813 52.6875 258.8125 C 52.960938 259.351563 53.984375 259.351563 54.480469 259.34375 C 58.746094 259.28125 62.910156 259.164063 63.824219 259.136719 C 64.539063 259.199219 65.253906 259.257813 65.964844 259.320313 C 66.117188 259.96875 66.285156 260.910156 66.300781 262.050781 C 66.378906 268.550781 61.304688 274.480469 55.824219 277.257813 C 54.851563 277.753906 51.386719 279.429688 46.632813 279.335938 C 36.125 279.128906 28.351563 271.976563 27.441406 261.648438 C 27.285156 259.910156 27.265625 257.921875 27.265625 257.921875 C 27.277344 256.546875 27.367188 255.390625 27.460938 254.53125 C 28.546875 254.480469 29.632813 254.425781 30.722656 254.375 C 31.789063 254.390625 32.859375 254.410156 33.929688 254.425781 C 33.789063 255.707031 33.683594 257.476563 33.824219 259.582031 C 33.929688 261.121094 34.019531 262.441406 34.496094 264.046875 C 34.898438 265.40625 35.820313 268.511719 38.660156 270.664063 C 39.945313 271.636719 41.496094 272.316406 43.347656 272.652344 C 48.34375 273.554688 53.089844 273.050781 56.574219 268.707031 C 57.773438 267.207031 57.914063 266.574219 57.746094 266.152344 C 57.660156 265.929688 57.507813 265.78125 57.382813 265.683594 C 56.847656 265.65625 56.039063 265.617188 55.058594 265.589844 C 53.121094 265.535156 52.070313 265.566406 51.316406 265.566406 "/>
<path style=" stroke:none;fill-rule:nonzero;fill:rgb(100%,100%,100%);fill-opacity:1;" d="M 84.433594 261.449219 C 84.265625 264.058594 84.320313 266.703125 83.890625 269.273438 C 83.5 271.628906 82.726563 274.097656 80.519531 276.21875 C 77.824219 278.808594 74.011719 279.179688 72.382813 279.359375 C 71.511719 279.457031 70.78125 279.472656 70.28125 279.46875 C 70.269531 278.726563 70.253906 277.972656 70.226563 277.203125 C 70.1875 276.160156 70.136719 275.144531 70.070313 274.152344 C 70.699219 274.011719 71.332031 273.871094 71.960938 273.730469 C 73.226563 273.421875 75.285156 272.691406 76.585938 270.917969 C 76.832031 270.585938 76.996094 270.289063 77.046875 270.1875 C 77.507813 269.277344 77.707031 268.066406 77.78125 265.550781 C 77.851563 263.011719 77.882813 259.71875 77.746094 255.816406 C 77.78125 255.019531 77.816406 254.222656 77.851563 253.425781 C 78.820313 253.386719 79.800781 253.347656 80.800781 253.324219 C 81.941406 253.292969 83.0625 253.273438 84.164063 253.269531 C 84.21875 254.121094 84.273438 254.972656 84.328125 255.824219 C 84.363281 257.699219 84.398438 259.574219 84.433594 261.449219 "/>
</g>
</svg>
